<svg width="112" height="65" viewBox="0 0 112 65" fill="none" xmlns="http://www.w3.org/2000/svg">
<path d="M57.3108 20.7853C57.2973 21.3947 57.0377 21.9804 56.5353 22.5389C56.5167 22.5576 56.5033 22.5796 56.4948 22.6067C56.4847 22.6388 56.4847 22.6608 56.4948 22.6744C56.5117 22.7065 56.537 22.7184 56.569 22.7082L56.6162 22.6879L57.0613 22.4645C57.2181 22.3832 57.3462 22.3087 57.4457 22.241C58.2583 21.6774 58.9327 20.9275 59.4688 19.9931C60.219 18.6711 60.4905 17.41 60.2848 16.2082C60.1398 15.3822 59.5851 14.4952 58.6191 13.5473L58.2887 13.2155C58.1538 13.0902 58.0391 12.9853 57.9447 12.904C57.675 12.6789 57.4019 12.5249 57.1287 12.4436L57.0815 12.4233L57.0343 12.3895C56.9888 12.3725 56.95 12.3759 56.9197 12.403C56.8927 12.4301 56.8826 12.4639 56.8927 12.5046L56.9062 12.5655L56.9264 12.6197L57.0613 13.141L57.1962 13.6692C57.294 14.0754 57.358 14.4275 57.385 14.7254C57.4659 15.7952 57.4811 16.8074 57.4322 17.7587L57.4255 18.4832V19.228C57.4255 19.8374 57.3867 20.357 57.3108 20.7853ZM61.4784 18.402C61.3571 19.2788 60.7973 20.2707 59.7993 21.3811C59.3086 21.9279 58.7135 22.3663 58.0122 22.6947C57.6109 22.8809 57.1018 22.9926 56.4813 23.0332H56.4004L56.3127 23.04C56.2453 23.0501 56.2065 23.0772 56.1981 23.1212C56.1475 23.3345 56.0194 23.4632 55.8137 23.5072L55.6788 23.5275L55.5372 23.541C55.4243 23.5546 55.3366 23.5749 55.2742 23.602C55.0348 23.7103 54.8763 23.7001 54.7954 23.5749C54.7583 23.5343 54.7313 23.4665 54.7145 23.3718L54.6942 23.2431L54.6673 23.1212C54.6032 22.7471 54.5813 22.2952 54.5998 21.7671L54.6808 20.4129C54.7111 19.7274 54.7229 18.9436 54.7145 18.0634L54.6605 15.7072C54.6555 15.4194 54.6369 15.0673 54.6066 14.6509L54.5324 13.5879C54.4683 12.7212 54.4582 12.0137 54.4987 11.4619C54.5071 11.3044 54.5526 11.2232 54.6335 11.2181C54.8713 11.2096 55.0179 11.059 55.0719 10.7645L55.0854 10.6968L55.1056 10.629C55.1275 10.585 55.168 10.5613 55.227 10.5613C55.2759 10.5613 55.3147 10.5817 55.3416 10.6223L55.3619 10.69L55.3754 10.7645C55.4108 10.9811 55.5456 11.1149 55.78 11.1639C55.9283 11.1961 56.0733 11.2706 56.2183 11.3874C56.3161 11.4602 56.4375 11.577 56.5825 11.7395C56.6769 11.8343 56.7932 11.8935 56.9332 11.9155L57.4457 12.0103L57.9582 12.1254C58.3308 12.2117 58.6596 12.3218 58.9428 12.4572C59.1181 12.5384 59.2952 12.684 59.4756 12.8905L59.6914 13.1546C59.7756 13.2595 59.8532 13.3425 59.9206 13.4051C60.9491 14.3801 61.4852 15.8341 61.5256 17.7655V18.104C61.5206 18.2259 61.5054 18.3258 61.4784 18.402Z" fill="#BD5210"/>
<path d="M69.0835 15.1858C67.8865 14.8794 66.7839 14.8185 65.7723 15.003C65.484 15.0572 65.2969 14.9488 65.2126 14.678L65.1317 14.3869L65.0373 13.8384L64.9361 13.2832C64.8552 12.8465 64.7506 12.4843 64.6259 12.1999C64.5534 12.0425 64.6141 11.9595 64.808 11.9494L65.1856 11.9426L65.5633 11.929C65.8499 11.9121 66.0977 11.8715 66.3051 11.8072L66.386 11.7869L66.4737 11.7598C66.536 11.7327 66.563 11.6836 66.5546 11.6108C66.5445 11.5482 66.5074 11.5076 66.44 11.4889L66.3523 11.4686H66.2646L63.6076 11.3671C63.4896 11.3671 63.3665 11.4382 63.2367 11.577C63.1102 11.7175 63.0479 11.8512 63.0479 11.9764L63.0883 13.8723C63.1018 14.6221 63.0967 15.2535 63.0748 15.7681C63.0563 16.2556 63.0647 16.8244 63.1018 17.4744L63.149 18.3207L63.203 19.1671C63.2873 20.5889 63.2771 21.7247 63.1692 22.5728C63.1102 22.9113 63.2468 23.2025 63.5806 23.4462C63.9127 23.6849 64.2381 23.7391 64.5584 23.6087C65.2092 23.343 66.1736 23.172 67.4515 23.0941L67.728 23.0806L68.0045 23.0738C68.2203 23.0569 68.4024 23.0112 68.5507 22.9384L68.6721 22.8707C68.7075 22.8352 68.721 22.7928 68.7126 22.7421C68.6991 22.693 68.6688 22.654 68.6249 22.627C68.5794 22.5999 68.5373 22.5914 68.4968 22.5999C68.3349 22.627 68.1529 22.6337 67.9505 22.6202L67.4043 22.5728C66.9407 22.5237 66.5782 22.5389 66.3186 22.6202C66.1028 22.693 66.0387 22.6185 66.1297 22.3968C66.2815 22.0311 66.3455 21.6486 66.3186 21.2457L66.2781 20.5754L66.2444 19.9051L66.2174 19.4785L66.1904 19.0655C66.1635 18.7371 66.1045 18.4629 66.0151 18.2462C65.8752 17.9314 65.774 17.5607 65.7116 17.1358L65.6442 16.5671L65.5902 15.9915C65.5768 15.8155 65.6509 15.7258 65.8128 15.7207C65.9966 15.7207 66.2663 15.7038 66.622 15.6665L67.0199 15.6327L67.4245 15.6191H68.2405C68.5642 15.6158 68.8373 15.5836 69.0633 15.5244C69.1847 15.4888 69.2487 15.4397 69.2588 15.3754C69.2723 15.3178 69.2555 15.2721 69.2116 15.24L69.1509 15.2061L69.0835 15.1858Z" fill="#BD5210"/>
<path d="M73.4605 18.3681C73.3829 19.0554 73.3408 19.9051 73.3324 20.9207V22.1598L73.3054 23.3853C73.2919 23.6917 73.3205 23.883 73.393 23.9608C73.4605 24.0421 73.6392 24.0793 73.9325 24.076L74.6744 24.0895L75.4162 24.1166C76.018 24.1335 76.5086 24.125 76.8863 24.0895L77.0481 24.0624C77.1021 24.0624 77.1324 24.0844 77.1426 24.1301C77.151 24.1657 77.1392 24.2148 77.1088 24.2791C77.0852 24.3332 77.0549 24.384 77.0144 24.4348C76.9605 24.489 76.8796 24.5161 76.7717 24.5161L76.1715 24.5431L75.5713 24.5905C75.0857 24.621 74.6845 24.621 74.3709 24.5905C73.9966 24.5499 73.6088 24.6176 73.2042 24.7937C72.803 24.9697 72.3967 25.0442 71.9836 25.0171L71.815 25.0103C71.7509 25.0137 71.7021 25.0239 71.6666 25.0374C71.4458 25.122 71.2856 25.1085 71.1878 24.9968C71.1204 24.9189 71.0681 24.7733 71.0327 24.5567C70.8304 23.3836 70.7057 21.9939 70.6618 20.3858L70.6281 18.2937L70.6079 16.2015C70.6028 15.8545 70.6079 15.4482 70.6214 14.9827L70.6686 13.7504C70.704 12.7483 70.6922 11.9358 70.6349 11.3129C70.6247 11.1775 70.6652 11.0946 70.7562 11.0624C71.2047 10.8999 71.7375 11.0201 72.3545 11.4213C72.6866 11.643 72.9041 11.9528 73.0087 12.3489C73.0441 12.4809 73.0761 12.6603 73.1031 12.8905L73.13 13.1614L73.1705 13.439C73.3998 14.7796 73.5026 16.2455 73.4807 17.8332L73.474 18.1515L73.4672 18.2733L73.4605 18.3681Z" fill="#BD5210"/>
<path d="M82.5358 18.3884C82.5661 19.9559 82.497 21.3727 82.3267 22.6405L82.3065 22.7827L82.2795 22.9046C82.2526 23.0045 82.2003 23.0908 82.1244 23.1619C82.0604 23.216 82.0536 23.2533 82.1042 23.2702L82.1716 23.277H82.2391L82.6977 23.3041L83.1427 23.3244L83.2169 23.3379L83.2844 23.3515C83.3282 23.3752 83.3518 23.4158 83.3518 23.4733C83.3518 23.5952 83.281 23.6629 83.1427 23.6765L82.8393 23.7103L82.5358 23.7306C82.293 23.7476 82.0907 23.778 81.9289 23.8187C81.6355 23.8813 81.2073 23.8813 80.6408 23.8187L80.0002 23.7442C79.7658 23.7306 79.5517 23.7459 79.3595 23.7916C79.3089 23.8 79.2718 23.7882 79.2449 23.7577L79.2111 23.7035L79.1842 23.6426C79.1471 23.5174 79.1977 23.4361 79.3325 23.3989C79.5972 23.3362 79.813 23.3024 79.9799 23.2973C80.1991 23.2838 80.3104 23.167 80.3104 22.9452C80.3104 20.567 80.0777 17.0664 79.6158 12.4437C79.5922 12.1965 79.4691 12.0831 79.2449 12.1051H78.9684L78.6986 12.078C78.4727 12.0696 78.2889 12.0831 78.1456 12.1187C78.0782 12.1373 78.0242 12.1187 77.9838 12.0645C77.9602 12.0374 77.9568 12.0069 77.9703 11.9697L78.0242 11.8884C78.1085 11.7581 78.2434 11.6955 78.4289 11.6989C78.874 11.7175 79.4876 11.6769 80.2699 11.577L81.1871 11.4619C81.5276 11.4263 81.8345 11.4077 82.1042 11.4077H82.3267C82.4212 11.4077 82.4953 11.4179 82.5493 11.4348C82.7145 11.467 82.8072 11.5431 82.8258 11.665C82.8393 11.77 82.7718 11.8461 82.6235 11.8952L82.4279 11.9562L82.2256 12.0035C82.1885 12.0222 82.1278 12.034 82.0435 12.0374L81.8614 12.0645L81.7872 12.0848L81.7333 12.1254C81.6928 12.1627 81.6962 12.205 81.7468 12.2541C81.8817 12.381 81.9643 12.5452 81.9963 12.7483L82.0233 13.0259L82.0368 13.29L82.2054 14.5562L82.3605 15.8358C82.4684 16.8075 82.5257 17.6572 82.5358 18.3884Z" fill="#BD5210"/>
<path d="M89.7494 21.2322L89.7427 21.2593L89.6752 22.2817L89.6483 22.7556L89.6348 22.8843L89.628 23.0061C89.6415 23.1923 89.6078 23.3819 89.5269 23.5749C89.4948 23.6528 89.4696 23.7272 89.4527 23.8051C89.3886 24.0929 89.2335 24.4026 88.9874 24.7327L88.7379 25.0983C88.6704 25.1965 88.5979 25.2642 88.5221 25.3015C88.4007 25.3556 88.2928 25.4318 88.1984 25.5317C88.1174 25.6163 88.0045 25.6637 87.8612 25.6738C87.5914 25.6874 87.2981 25.6231 86.9845 25.4843C86.8446 25.425 86.6878 25.3421 86.5124 25.2337L86.2831 25.0983L86.0606 24.9494C85.8448 24.8173 85.6661 24.6582 85.5278 24.4686C85.2446 24.0709 85.0575 23.6866 84.9681 23.3176C84.8231 22.6778 84.7388 22.0278 84.7118 21.3676L84.6849 20.4129L84.6714 19.4515V18.5916L84.6849 17.7249V17.6775L84.7591 16.8447C84.7894 16.5061 84.8197 16.2251 84.8467 15.9983C84.9546 15.2231 85.2851 14.5612 85.8381 14.0145C85.9594 13.8977 86.1044 13.7707 86.2764 13.6353L86.7215 13.29C86.7839 13.2409 86.8462 13.2054 86.9103 13.1817C87.2239 13.0733 87.5122 13.0395 87.7735 13.0801C87.8983 13.0936 87.9977 13.1478 88.0702 13.2426L88.2388 13.466L88.3063 13.5811L88.3804 13.6895C88.5018 13.8384 88.5844 14.0348 88.63 14.2785C88.6789 14.5054 88.6974 14.7085 88.6839 14.8879C88.6738 14.9607 88.6772 15.0419 88.6907 15.1317L88.7244 15.3686L88.7716 15.7343L88.7851 16.0931C88.7935 16.2387 88.7733 16.3538 88.7244 16.4384C88.7109 16.4621 88.6923 16.4723 88.6704 16.4723L88.6367 16.4655L88.6165 16.4384L88.5423 16.1947L88.5086 16.0322L88.4749 15.8765L88.4479 15.7613L88.4074 15.6462L88.2793 15.3483L88.1579 15.0436C87.991 14.6509 87.7904 14.3395 87.5577 14.1093C87.5038 14.0602 87.4447 14.0551 87.3824 14.0957C87.2205 14.2278 87.0991 14.3784 87.0182 14.5494L86.9508 14.678L86.8901 14.8202C86.8446 14.9285 86.8176 15.0267 86.8092 15.1113L86.8159 15.3077L86.8226 15.4905L86.8092 15.5718L86.7822 15.653C86.7636 15.7258 86.7552 15.785 86.7552 15.8291C86.7552 15.9425 86.7383 16.0897 86.708 16.2692C86.676 16.4317 86.6709 16.6195 86.6945 16.8311L86.7215 17.3186L86.7417 17.8129L86.7822 18.7811L86.8092 19.2212L86.8294 19.6546L86.8766 20.352L86.9305 21.0494L86.944 21.2254L86.9508 21.3947L86.9643 21.6249L86.9912 21.8416L87.0519 22.2884C87.0823 22.4611 87.121 22.61 87.1666 22.7353C87.2424 22.9435 87.3234 23.1179 87.4093 23.2567C87.5206 23.4327 87.6268 23.5681 87.7263 23.6629C87.8645 23.7932 88.0112 23.8 88.1646 23.6832C88.4108 23.5038 88.5929 23.3362 88.7109 23.1822C88.8188 23.0383 88.893 22.8572 88.9334 22.6405C88.9773 22.3832 89.043 22.0887 89.129 21.7535L89.1695 21.5504C89.2049 21.3168 89.2504 21.1272 89.3043 20.9817C89.3263 20.9326 89.3448 20.8649 89.3583 20.7785L89.3853 20.5686L89.3987 20.4874C89.4072 20.4569 89.4257 20.4366 89.4527 20.4265C89.483 20.418 89.5134 20.4248 89.5404 20.4468L89.5606 20.4874L89.5943 20.5212L89.6618 20.616C89.773 20.7481 89.8118 20.9072 89.7764 21.0968L89.7629 21.1442L89.7494 21.2186V21.2322Z" fill="#BD5210"/>
<path d="M95.734 18.3884C95.7644 19.9559 95.6953 21.3727 95.525 22.6405L95.5048 22.7827L95.4778 22.9046C95.4508 23.0045 95.3985 23.0908 95.3227 23.1619C95.2586 23.216 95.2519 23.2533 95.3024 23.2702L95.3699 23.277H95.4373L95.8959 23.3041L96.341 23.3244L96.4152 23.3379L96.4826 23.3515C96.5264 23.3752 96.55 23.4158 96.55 23.4733C96.55 23.5952 96.4792 23.6629 96.341 23.6765L96.0375 23.7103L95.734 23.7306C95.4913 23.7476 95.289 23.778 95.1271 23.8187C94.8338 23.8813 94.4055 23.8813 93.8391 23.8187L93.1984 23.7442C92.9641 23.7306 92.7499 23.7459 92.5577 23.7916C92.5072 23.8 92.4701 23.7882 92.4431 23.7577L92.4094 23.7035L92.3824 23.6426C92.3453 23.5174 92.3959 23.4361 92.5308 23.3989C92.7955 23.3362 93.0113 23.3024 93.1782 23.2973C93.3973 23.2838 93.5086 23.167 93.5086 22.9452C93.5086 20.567 93.276 17.0664 92.814 12.4437C92.7904 12.1965 92.6673 12.0831 92.4431 12.1051H92.1666L91.8969 12.078C91.6709 12.0696 91.4872 12.0831 91.3439 12.1187C91.2764 12.1373 91.2225 12.1187 91.182 12.0645C91.1584 12.0374 91.155 12.0069 91.1685 11.9697L91.2225 11.8884C91.3068 11.7581 91.4417 11.6955 91.6271 11.6989C92.0722 11.7175 92.6859 11.6769 93.4681 11.577L94.3853 11.4619C94.7259 11.4263 95.0327 11.4077 95.3024 11.4077H95.525C95.6194 11.4077 95.6936 11.4179 95.7475 11.4348C95.9128 11.467 96.0055 11.5431 96.024 11.665C96.0375 11.77 95.9701 11.8461 95.8217 11.8952L95.6261 11.9562L95.4238 12.0035C95.3867 12.0222 95.326 12.034 95.2418 12.0374L95.0597 12.0645L94.9855 12.0848L94.9315 12.1254C94.8911 12.1627 94.8944 12.205 94.945 12.2541C95.0799 12.381 95.1625 12.5452 95.1945 12.7483L95.2215 13.0259L95.235 13.29L95.4036 14.5562L95.5587 15.8358C95.6666 16.8075 95.7239 17.6572 95.734 18.3884Z" fill="#BD5210"/>
<path d="M101.019 16.4046C100.96 16.5908 100.911 16.8024 100.871 17.041L100.797 17.6707L100.749 18.1514C100.726 18.3326 100.699 18.49 100.669 18.6254L100.648 18.7744C100.638 18.8472 100.672 18.8827 100.749 18.8827C100.807 18.8827 100.864 18.8759 100.918 18.8624L101.538 18.727C101.673 18.6965 101.722 18.6102 101.687 18.4697L101.626 18.253L101.451 17.7181L101.168 16.7973L101.1 16.6009L101.019 16.4046ZM97.944 23.6629L97.9508 23.4462C97.9457 23.3565 97.9508 23.2567 97.9643 23.1483C97.9811 23.0315 97.9913 22.9164 97.9913 22.803C97.9778 22.4882 98.0115 22.0277 98.0924 21.4218L98.1733 20.7311L98.3352 19.1603L98.3689 18.903L98.4094 18.6457L98.4903 17.8332L98.578 17.0207L98.6859 16.1405L98.7398 15.7275L98.8005 15.3145C98.8443 14.9895 98.8696 14.7169 98.8747 14.4952L98.8949 14.3395L98.9219 14.177L99.0163 13.3442C99.0298 13.2189 99.0837 13.1393 99.1782 13.1072C99.3029 13.0632 99.4108 12.9684 99.5018 12.8228L99.5828 12.728C99.6266 12.6789 99.6704 12.6722 99.7109 12.7077C99.7547 12.7399 99.8222 12.772 99.9132 12.8025L100.014 12.8431L100.109 12.8973C100.19 12.9565 100.291 12.9887 100.412 12.9921C100.704 12.9972 100.92 13.1597 101.06 13.4796C101.238 13.8909 101.437 14.4867 101.653 15.2671L101.788 15.7139L101.903 16.1676L102.037 16.5468L102.159 16.9259L102.287 17.3186C102.39 17.6402 102.466 17.9009 102.516 18.1041C102.56 18.2666 102.628 18.4341 102.719 18.6051L102.806 18.8353L102.887 19.0723L103.218 19.8983L103.258 19.9796L103.278 20.0541C103.287 20.1895 103.32 20.3367 103.379 20.4942L103.46 20.6905L103.555 20.9004C103.636 21.068 103.718 21.266 103.804 21.4962L104.02 22.0988C104.091 22.2884 104.177 22.4949 104.276 22.715C104.33 22.847 104.367 22.9892 104.391 23.1416C104.399 23.2008 104.399 23.2668 104.391 23.3379C104.367 23.5055 104.271 23.602 104.101 23.6291C104.029 23.6426 103.973 23.6206 103.932 23.5613L103.771 23.3447L103.616 23.128C103.484 22.957 103.39 22.8013 103.332 22.6608L103.069 22.1327L102.82 21.6046C102.634 21.1983 102.486 20.8361 102.375 20.5145L102.199 20.027L102.031 19.5327L102.011 19.465L101.984 19.3973C101.952 19.316 101.889 19.2822 101.795 19.2957C101.434 19.3465 101.147 19.3567 100.932 19.3296C100.783 19.3076 100.684 19.316 100.635 19.3567C100.584 19.3973 100.551 19.4921 100.534 19.641L100.122 22.2275L100.055 22.5457L99.9065 23.1957C99.8255 23.5935 99.7075 23.9067 99.5558 24.1369C99.5153 24.1944 99.4833 24.2807 99.4614 24.3942C99.4344 24.533 99.3434 24.6616 99.1916 24.7801C99.0382 24.8884 98.8882 24.9375 98.7398 24.9291L98.4229 24.9155C98.3419 24.9189 98.2627 24.8969 98.1868 24.8478L98.0924 24.7801L98.0047 24.6921C97.9137 24.6057 97.8732 24.4839 97.8834 24.3264L97.944 23.6629Z" fill="#BD5210"/>
<path d="M110.961 19.3025C110.978 19.3346 111.002 19.3736 111.029 19.4176L111.096 19.5462C111.153 19.6681 111.204 19.768 111.244 19.8441C111.379 20.098 111.491 20.3249 111.582 20.528C111.846 21.134 111.986 21.6486 112 22.0717V22.1259C112 23.2008 111.206 23.7374 109.619 23.7374C109.425 23.7374 109.221 23.7272 109.006 23.7103L108.938 23.7035C108.151 23.6409 107.532 23.3971 107.084 22.9723C106.773 22.6879 106.487 22.2326 106.227 21.6046C106.133 21.3794 106.045 21.1154 105.964 20.8124L105.876 20.4129L105.796 20.0066L105.782 19.9592L105.769 19.9051V19.8645C105.769 19.8374 105.77 19.8137 105.775 19.79C105.797 19.7003 105.88 19.6461 106.025 19.6275H106.059C106.161 19.6275 106.237 19.6664 106.288 19.7426C106.305 19.7747 106.322 19.8154 106.335 19.8645L106.362 19.9254L106.382 19.9728C106.44 20.1404 106.526 20.3773 106.638 20.6837L106.76 21.0358L106.881 21.4014C107.151 22.0785 107.515 22.5728 107.974 22.8842C108.117 22.979 108.265 23.0603 108.419 23.128C108.594 23.1923 108.756 23.2228 108.904 23.2228H108.931C109.533 23.2092 109.835 22.9384 109.835 22.4103V22.3155C109.784 21.5487 109.181 20.2098 108.021 18.3004C107.927 18.1616 107.778 17.8975 107.576 17.5082C107.347 17.085 107.117 16.6483 106.888 16.2014C106.281 14.9878 105.914 14.1566 105.789 13.7098C105.703 13.3983 105.661 13.1173 105.661 12.8634C105.661 12.2236 105.925 11.7445 106.456 11.428C106.888 11.1758 107.424 11.0488 108.068 11.0488C108.26 11.0488 108.463 11.0607 108.675 11.0827C109.029 11.1233 109.329 11.2621 109.572 11.4957C110.074 11.9747 110.383 12.6451 110.496 13.5066L110.503 13.5405V13.5811C110.506 13.5947 110.509 13.6082 110.509 13.6217C110.509 13.6353 110.506 13.6488 110.503 13.6624C110.476 13.7267 110.417 13.7572 110.327 13.7572H110.314C110.26 13.7572 110.219 13.7368 110.192 13.6962C110.182 13.6827 110.176 13.6607 110.172 13.6285L110.159 13.5947L110.152 13.5676C110.125 13.4914 110.095 13.3966 110.064 13.2832L109.99 12.9921C109.926 12.7669 109.852 12.5824 109.768 12.4368C109.677 12.2845 109.56 12.1186 109.417 11.9426C109.115 11.6497 108.736 11.4872 108.277 11.4551C108.223 11.4517 108.169 11.4483 108.115 11.4483C108.011 11.4483 107.908 11.4585 107.805 11.4754C107.751 11.4855 107.699 11.494 107.65 11.5025C107.632 11.5076 107.613 11.5126 107.596 11.516L107.576 11.5228H107.562C107.368 11.5871 107.227 11.6971 107.138 11.8546C107.097 11.9324 107.077 12.0103 107.077 12.0915C107.077 12.1592 107.097 12.2303 107.138 12.3014L107.32 12.5723L107.495 12.8431C107.633 13.0564 107.744 13.2358 107.825 13.3848C107.933 13.5879 108.075 13.8621 108.25 14.204L108.459 14.6171L108.668 15.0233L109.538 16.628L110.401 18.2395L110.685 18.7743C110.796 18.9826 110.889 19.1586 110.961 19.3025Z" fill="#BD5210"/>
<path d="M57.3108 39.4588C57.2973 40.0682 57.0377 40.6539 56.5353 41.2125C56.5167 41.2311 56.5033 41.2531 56.4948 41.2802C56.4847 41.3123 56.4847 41.3343 56.4948 41.3479C56.5117 41.38 56.537 41.3919 56.569 41.3817L56.6162 41.3614L57.0613 41.138C57.2181 41.0567 57.3462 40.9823 57.4457 40.9146C58.2583 40.3509 58.9327 39.601 59.4688 38.6666C60.219 37.3446 60.4905 36.0836 60.2848 34.8817C60.1398 34.0557 59.5851 33.1687 58.6191 32.2208L58.2887 31.889C58.1538 31.7638 58.0391 31.6588 57.9447 31.5776C57.675 31.3524 57.4019 31.1984 57.1287 31.1172L57.0815 31.0968L57.0343 31.063C56.9888 31.0461 56.95 31.0494 56.9197 31.0765C56.8927 31.1036 56.8826 31.1375 56.8927 31.1781L56.9062 31.239L56.9264 31.2932L57.0613 31.8146L57.1962 32.3427C57.294 32.7489 57.358 33.101 57.385 33.3989C57.4659 34.4687 57.4811 35.481 57.4322 36.4323L57.4255 37.1567V37.9015C57.4255 38.5109 57.3867 39.0306 57.3108 39.4588ZM61.4784 37.0755C61.3571 37.9523 60.7973 38.9442 59.7993 40.0547C59.3086 40.6014 58.7135 41.0398 58.0122 41.3682C57.6109 41.5544 57.1018 41.6661 56.4813 41.7067H56.4004L56.3127 41.7135C56.2453 41.7237 56.2065 41.7507 56.1981 41.7948C56.1475 42.008 56.0194 42.1367 55.8137 42.1807L55.6788 42.201L55.5372 42.2146C55.4243 42.2281 55.3366 42.2484 55.2742 42.2755C55.0348 42.3838 54.8763 42.3737 54.7954 42.2484C54.7583 42.2078 54.7313 42.1401 54.7145 42.0453L54.6942 41.9166L54.6673 41.7948C54.6032 41.4207 54.5813 40.9687 54.5998 40.4406L54.6808 39.0864C54.7111 38.4009 54.7229 37.6172 54.7145 36.7369L54.6605 34.3807C54.6555 34.0929 54.6369 33.7409 54.6066 33.3244L54.5324 32.2614C54.4683 31.3948 54.4582 30.6872 54.4987 30.1354C54.5071 29.978 54.5526 29.8967 54.6335 29.8916C54.8713 29.8832 55.0179 29.7325 55.0719 29.438L55.0854 29.3703L55.1056 29.3026C55.1275 29.2586 55.168 29.2349 55.227 29.2349C55.2759 29.2349 55.3147 29.2552 55.3416 29.2958L55.3619 29.3635L55.3754 29.438C55.4108 29.6547 55.5456 29.7884 55.78 29.8375C55.9283 29.8696 56.0733 29.9441 56.2183 30.0609C56.3161 30.1337 56.4375 30.2505 56.5825 30.413C56.6769 30.5078 56.7932 30.567 56.9332 30.589L57.4457 30.6838L57.9582 30.7989C58.3308 30.8853 58.6596 30.9953 58.9428 31.1307C59.1181 31.2119 59.2952 31.3575 59.4756 31.564L59.6914 31.8281C59.7756 31.933 59.8532 32.016 59.9206 32.0786C60.9491 33.0536 61.4852 34.5076 61.5256 36.439V36.7776C61.5206 36.8994 61.5054 36.9993 61.4784 37.0755Z" fill="#BD5210"/>
<path d="M67.3976 40.1291C67.5358 40.1156 67.642 40.0952 67.7145 40.0682C68.0011 39.9649 68.2287 39.7618 68.3956 39.4588L68.5103 39.2354L68.6114 39.0051C68.6603 38.8883 68.7126 38.7411 68.7665 38.565L68.8947 38.1114C69.0059 37.7458 69.0734 37.414 69.097 37.1161L69.1037 36.913V36.4593L69.1105 36.1952C69.1138 35.9921 69.0936 35.8212 69.0498 35.6807L69.0363 35.5723C68.9992 35.271 68.9301 35.0374 68.8272 34.8749C68.8087 34.8394 68.7885 34.7903 68.7665 34.726C68.7429 34.6549 68.6991 34.555 68.6317 34.4281L68.5507 34.2791L68.4766 34.1234C68.4176 34.0015 68.3771 33.8932 68.3552 33.7984L68.3282 33.7374L68.2877 33.6765L67.8899 33.1145C67.8123 33.0197 67.7145 32.9706 67.5931 32.9656C67.4347 32.9622 67.3116 32.9757 67.2222 33.0062L67.1278 33.0333L67.0267 33.04C66.8193 33.0502 66.6187 33.1534 66.4265 33.3515C66.3051 33.4835 66.1651 33.6663 66.0084 33.8999C65.7689 34.2436 65.6206 34.533 65.5633 34.7666L65.4958 35.0239L65.4351 35.2947L65.3812 35.5656L65.3542 35.6536L65.334 35.7416L65.3003 36.0395L65.2733 36.3442C65.2547 36.7555 65.2665 37.155 65.307 37.5426C65.3508 38.0081 65.4318 38.389 65.5498 38.6869C65.7116 39.1169 65.9072 39.4249 66.1365 39.6145L66.1702 39.6416L66.1972 39.6687C66.5108 39.9903 66.912 40.1426 67.3976 40.1291ZM69.6837 35.1255C69.6786 35.1982 69.6854 35.2812 69.7039 35.376L69.7444 35.6197L69.7848 35.9176L69.8455 36.8317C69.8489 36.9316 69.8472 37.0213 69.8388 37.1025L69.8118 37.4817L69.7781 37.8744L69.7579 38.1791L69.7309 38.4838L69.7174 38.5921L69.6972 38.7005C69.6061 39.1304 69.4831 39.557 69.3263 39.9801C69.2319 40.2104 69.1105 40.4321 68.9621 40.6437C68.8306 40.8333 68.6401 41.0093 68.3889 41.1718C68.2355 41.2666 68.1259 41.3479 68.0584 41.4156C67.991 41.4833 67.9118 41.5357 67.8224 41.5713L67.5459 41.6796L67.2559 41.788C66.9896 41.8692 66.7046 41.8743 66.3995 41.8015C65.9847 41.6932 65.6408 41.5645 65.3677 41.4156L65.2665 41.3614L64.9361 41.1109L64.6124 40.8604C64.5045 40.7656 64.3781 40.6437 64.2347 40.4947C64.0813 40.3322 63.9532 40.1596 63.8504 39.9734C63.643 39.5773 63.4862 39.2083 63.3783 38.8697L63.2232 38.3958C63.1726 38.2113 63.1355 38.0488 63.1085 37.9083L63.0883 37.8067L63.0748 37.7187L63.0546 37.0416L63.0479 36.3645C63.0563 36.004 63.0984 35.6333 63.176 35.2541L63.3378 34.4484C63.3547 34.3807 63.3817 34.2977 63.4188 34.1979L63.5064 33.9541C63.5907 33.6968 63.7728 33.3515 64.0527 32.9182C64.2769 32.5627 64.5618 32.2885 64.9091 32.0989C65.0389 32.0278 65.1806 31.9736 65.334 31.9364L65.6307 31.8687C65.742 31.8382 65.8398 31.8061 65.9207 31.7739C66.0016 31.7383 66.0994 31.7316 66.2174 31.7536C66.3337 31.7722 66.4703 31.7722 66.6288 31.7536C66.9794 31.7096 67.3048 31.7333 67.6066 31.8281C67.7145 31.8653 67.8039 31.9008 67.8764 31.9364C68.168 32.109 68.3855 32.2732 68.5305 32.4307C68.8272 32.7692 69.0447 33.084 69.1847 33.3718L69.2049 33.4124L69.2184 33.4531C69.2622 33.6528 69.3499 33.8915 69.4814 34.1708C69.5168 34.2571 69.5488 34.3671 69.5758 34.5025L69.6095 34.6718L69.6365 34.8479L69.6635 34.9833L69.6837 35.1255Z" fill="#BD5210"/>
<path d="M59.516 58.5792L59.5093 58.6062L59.4418 59.6286L59.4149 60.1026L59.4014 60.2312L59.3946 60.3531C59.4081 60.5393 59.3744 60.7289 59.2935 60.9219C59.2614 60.9997 59.2362 61.0742 59.2193 61.1521C59.1552 61.4398 59.0001 61.7496 58.754 62.0797L58.5045 62.4453C58.437 62.5435 58.3645 62.6112 58.2887 62.6484C58.1673 62.7026 58.0594 62.7788 57.965 62.8786C57.884 62.9633 57.7711 63.0107 57.6278 63.0208C57.358 63.0344 57.0647 62.9701 56.7511 62.8312C56.6112 62.772 56.4544 62.6891 56.279 62.5807L56.0497 62.4453L55.8272 62.2964C55.6114 62.1643 55.4327 62.0052 55.2944 61.8156C55.0112 61.4178 54.8241 61.0336 54.7347 60.6646C54.5897 60.0247 54.5054 59.3747 54.4785 58.7146L54.4515 57.7599L54.438 56.7984V55.9385L54.4515 55.0719V55.0245L54.5257 54.1917C54.556 53.8531 54.5864 53.5721 54.6133 53.3453C54.7212 52.57 55.0517 51.9082 55.6047 51.3615C55.726 51.2447 55.871 51.1177 56.043 50.9823L56.4881 50.637C56.5505 50.5879 56.6128 50.5523 56.6769 50.5286C56.9905 50.4203 57.2788 50.3865 57.5401 50.4271C57.6649 50.4406 57.7643 50.4948 57.8368 50.5896L58.0054 50.813L58.0729 50.9281L58.147 51.0365C58.2684 51.1854 58.351 51.3818 58.3966 51.6255C58.4455 51.8523 58.464 52.0555 58.4505 52.2349C58.4404 52.3077 58.4438 52.3889 58.4573 52.4786L58.491 52.7156L58.5382 53.0812L58.5517 53.4401C58.5601 53.5857 58.5399 53.7008 58.491 53.7854C58.4775 53.8091 58.4589 53.8193 58.437 53.8193L58.4033 53.8125L58.3831 53.7854L58.3089 53.5417L58.2752 53.3792L58.2415 53.2234L58.2145 53.1083L58.174 52.9932L58.0459 52.6953L57.9245 52.3906C57.7576 51.9979 57.557 51.6865 57.3243 51.4562C57.2704 51.4072 57.2113 51.4021 57.149 51.4427C56.9871 51.5747 56.8657 51.7254 56.7848 51.8964L56.7174 52.025L56.6567 52.1672C56.6112 52.2755 56.5842 52.3737 56.5758 52.4583L56.5825 52.6547L56.5892 52.8375L56.5758 52.9187L56.5488 53C56.5302 53.0728 56.5218 53.132 56.5218 53.176C56.5218 53.2895 56.5049 53.4367 56.4746 53.6161C56.4426 53.7786 56.4375 53.9665 56.4611 54.1781L56.4881 54.6656L56.5083 55.1599L56.5488 56.1281L56.5758 56.5682L56.596 57.0016L56.6432 57.699L56.6971 58.3964L56.7106 58.5724L56.7174 58.7417L56.7309 58.9719L56.7578 59.1885L56.8185 59.6354C56.8489 59.8081 56.8877 59.957 56.9332 60.0823C57.009 60.2905 57.09 60.4648 57.1759 60.6036C57.2872 60.7797 57.3934 60.9151 57.4929 61.0099C57.6311 61.1402 57.7778 61.147 57.9312 61.0302C58.1774 60.8508 58.3595 60.6832 58.4775 60.5292C58.5854 60.3853 58.6596 60.2042 58.7 59.9875C58.7439 59.7302 58.8096 59.4357 58.8956 59.1005L58.9361 58.8974C58.9715 58.6638 59.017 58.4742 59.0709 58.3286C59.0929 58.2796 59.1114 58.2118 59.1249 58.1255L59.1519 57.9156L59.1653 57.8344C59.1738 57.8039 59.1923 57.7836 59.2193 57.7734C59.2496 57.765 59.28 57.7717 59.307 57.7937L59.3272 57.8344L59.3609 57.8682L59.4284 57.963C59.5396 58.0951 59.5784 58.2542 59.543 58.4437L59.5295 58.4911L59.516 58.5656V58.5792Z" fill="#BD5210"/>
<path d="M66.9512 52.5328C65.7542 52.2264 64.6516 52.1655 63.64 52.35C63.3517 52.4042 63.1646 52.2958 63.0803 52.025L62.9993 51.7338L62.9049 51.1854L62.8038 50.6302C62.7228 50.1935 62.6183 49.8312 62.4936 49.5469C62.4211 49.3894 62.4818 49.3065 62.6756 49.2963L63.0533 49.2896L63.4309 49.276C63.7176 49.2591 63.9654 49.2185 64.1728 49.1542L64.2537 49.1338L64.3413 49.1068C64.4037 49.0797 64.4307 49.0306 64.4223 48.9578C64.4122 48.8952 64.3751 48.8545 64.3076 48.8359L64.22 48.8156H64.1323L61.4753 48.7141C61.3572 48.7141 61.2342 48.7851 61.1044 48.9239C60.9779 49.0644 60.9155 49.1982 60.9155 49.3234L60.956 51.2193C60.9695 51.9691 60.9644 52.6005 60.9425 53.1151C60.924 53.6026 60.9324 54.1713 60.9695 54.8213L61.0167 55.6677L61.0706 56.5141C61.1549 57.9359 61.1448 59.0717 61.0369 59.9198C60.9779 60.2583 61.1145 60.5495 61.4483 60.7932C61.7804 61.0319 62.1058 61.0861 62.4261 60.9557C63.0769 60.69 64.0412 60.519 65.3192 60.4411L65.5957 60.4276L65.8722 60.4208C66.088 60.4039 66.2701 60.3582 66.4184 60.2854L66.5398 60.2177C66.5752 60.1821 66.5887 60.1398 66.5803 60.0891C66.5668 60.04 66.5364 60.001 66.4926 59.9739C66.4471 59.9469 66.4049 59.9384 66.3645 59.9469C66.2026 59.9739 66.0205 59.9807 65.8182 59.9672L65.272 59.9198C64.8083 59.8707 64.4459 59.8859 64.1862 59.9672C63.9704 60.04 63.9064 59.9655 63.9974 59.7437C64.1491 59.3781 64.2132 58.9956 64.1862 58.5927L64.1458 57.9224L64.1121 57.2521L64.0851 56.8255L64.0581 56.4125C64.0311 56.0841 63.9721 55.8099 63.8828 55.5932C63.7428 55.2784 63.6417 54.9077 63.5793 54.4828L63.5119 53.9141L63.4579 53.3385C63.4444 53.1625 63.5186 53.0728 63.6805 53.0677C63.8642 53.0677 64.134 53.0508 64.4897 53.0135L64.8876 52.9797L65.2922 52.9661H66.1082C66.4319 52.9627 66.705 52.9306 66.9309 52.8713C67.0523 52.8358 67.1164 52.7867 67.1265 52.7224C67.14 52.6648 67.1231 52.6191 67.0793 52.587L67.0186 52.5531L66.9512 52.5328Z" fill="#BD5210"/>
<path d="M71.6178 53.7516C71.5588 53.9378 71.5099 54.1493 71.4695 54.388L71.3953 55.0177L71.3481 55.4984C71.3245 55.6796 71.2975 55.837 71.2671 55.9724L71.2469 56.1213C71.2368 56.1941 71.2705 56.2297 71.3481 56.2297C71.4054 56.2297 71.4627 56.2229 71.5167 56.2094L72.1371 56.074C72.272 56.0435 72.3209 55.9572 72.2855 55.8167L72.2248 55.6L72.0494 55.0651L71.7662 54.1443L71.6987 53.9479L71.6178 53.7516ZM68.5427 61.0099L68.5494 60.7932C68.5444 60.7035 68.5494 60.6036 68.5629 60.4953C68.5798 60.3785 68.5899 60.2634 68.5899 60.15C68.5764 59.8352 68.6101 59.3747 68.691 58.7687L68.772 58.0781L68.9338 56.5073L68.9675 56.25L69.008 55.9927L69.0889 55.1802L69.1766 54.3677L69.2845 53.4875L69.3384 53.0745L69.3991 52.6615C69.443 52.3365 69.4683 52.0639 69.4733 51.8422L69.4935 51.6865L69.5205 51.524L69.6149 50.6911C69.6284 50.5659 69.6824 50.4863 69.7768 50.4542C69.9015 50.4102 70.0094 50.3154 70.1005 50.1698L70.1814 50.075C70.2252 50.0259 70.2691 50.0191 70.3095 50.0547C70.3534 50.0868 70.4208 50.119 70.5119 50.1495L70.613 50.1901L70.7074 50.2443C70.7883 50.3035 70.8895 50.3357 71.0109 50.3391C71.3026 50.3441 71.5184 50.5066 71.6583 50.8266C71.837 51.2379 72.0359 51.8337 72.2517 52.6141L72.3866 53.0609L72.5013 53.5146L72.6361 53.8937L72.7575 54.2729L72.8856 54.6656C72.9885 54.9872 73.0644 55.2479 73.1149 55.451C73.1588 55.6135 73.2262 55.7811 73.3172 55.9521L73.4049 56.1823L73.4858 56.4193L73.8163 57.2453L73.8567 57.3266L73.877 57.401C73.8854 57.5365 73.9191 57.6837 73.9781 57.8411L74.0591 58.0375L74.1535 58.2474C74.2344 58.415 74.317 58.613 74.403 58.8432L74.6188 59.4458C74.6896 59.6354 74.7756 59.8419 74.875 60.062C74.929 60.194 74.9661 60.3362 74.9897 60.4885C74.9981 60.5478 74.9981 60.6138 74.9897 60.6849C74.9661 60.8525 74.87 60.949 74.6997 60.976C74.6272 60.9896 74.5716 60.9676 74.5311 60.9083L74.3693 60.6917L74.2142 60.475C74.0827 60.304 73.9882 60.1483 73.9309 60.0078L73.6679 59.4797L73.4184 58.9516C73.2329 58.5453 73.0846 58.1831 72.9733 57.8615L72.798 57.374L72.6294 56.8797L72.6092 56.812L72.5822 56.7443C72.5501 56.663 72.4878 56.6292 72.3934 56.6427C72.0326 56.6935 71.746 56.7036 71.5302 56.6766C71.3818 56.6546 71.2823 56.663 71.2334 56.7036C71.1829 56.7443 71.1491 56.8391 71.1323 56.988L70.7209 59.5745L70.6535 59.8927L70.5051 60.5427C70.4242 60.9405 70.3062 61.2536 70.1544 61.4838C70.114 61.5414 70.0819 61.6277 70.06 61.7411C70.033 61.8799 69.942 62.0086 69.7903 62.1271C69.6369 62.2354 69.4868 62.2845 69.3384 62.276L69.0215 62.2625C68.9406 62.2659 68.8613 62.2439 68.7855 62.1948L68.691 62.1271L68.6034 62.0391C68.5123 61.9527 68.4719 61.8309 68.482 61.6734L68.5427 61.0099Z" fill="#BD5210"/>
<path d="M78.782 53.9209L78.7887 54.1646C78.7921 54.2323 78.8056 54.3 78.8292 54.3677C78.8511 54.449 78.8983 54.4744 78.9708 54.4422L79.1934 54.3474L79.4024 54.2391C79.5592 54.1629 79.689 54.0732 79.7935 53.9683C79.9284 53.843 80.0043 53.7008 80.0228 53.5417C80.0633 53.1676 80.0464 52.8409 79.9756 52.5599C79.8576 52.1097 79.5997 51.7525 79.2001 51.4901C79.0821 51.4224 78.9742 51.4089 78.8764 51.4495L78.8022 51.4766L78.7213 51.5037C78.6572 51.5274 78.6286 51.5748 78.6336 51.6459L78.7415 53.1287L78.7887 53.9209H78.782ZM78.8831 56.399C78.7921 56.9813 78.7584 57.4806 78.782 57.8953C78.7854 58.0138 78.7752 58.156 78.7483 58.3219C78.7247 58.4539 78.7162 58.5995 78.7213 58.762L78.7078 59.236L78.6808 59.6896L78.6673 61.6328C78.6673 61.8444 78.637 62.0154 78.5797 62.1474L78.5257 62.2693L78.4785 62.3979C78.4414 62.4961 78.4043 62.5757 78.3639 62.6349L78.3099 62.7162L78.2627 62.7839C78.1683 62.8922 78.0553 62.9159 77.9255 62.8584L77.5546 62.6891L77.1837 62.513C76.9359 62.4047 76.7943 62.1948 76.7589 61.8834L76.7184 61.362L76.6712 60.8813L76.6442 60.4073L76.624 59.9943L76.5768 59.588L76.4284 58.2948C76.4048 58.0782 76.3846 57.8073 76.3677 57.4823L76.3138 56.6834C76.2767 56.1603 76.2615 55.5526 76.2666 54.862L76.2801 53.9479L76.2935 53.0406L76.3138 51.8964L76.334 50.7589C76.3374 50.5287 76.4014 50.3374 76.5228 50.1834C76.6307 50.0581 76.7589 49.9938 76.9072 49.9938C77.096 49.9989 77.2377 50.0107 77.3321 50.0276L77.9525 50.1495C78.0739 50.1766 78.1649 50.2545 78.229 50.3797C78.3133 50.5608 78.401 50.6912 78.492 50.7724L78.5325 50.8266L78.5594 50.8875C78.6134 51.006 78.7044 51.05 78.8359 51.0229L78.8899 51.0162L78.9371 51.0026C79.1478 50.9265 79.3721 50.962 79.6115 51.111C79.8408 51.2565 80.097 51.5341 80.3802 51.9438C80.5859 52.2383 80.7141 52.5362 80.7646 52.8375C80.827 53.2438 80.7646 53.628 80.5758 53.9886C80.5354 54.0698 80.4696 54.1629 80.3802 54.2662L80.2723 54.4016L80.1779 54.5438C80.1324 54.603 80.0532 54.6589 79.9419 54.713L79.7733 54.7875C79.6654 54.8417 79.6384 54.9196 79.6924 55.0177L79.8542 55.3495L80.0228 55.6813L80.2454 56.0469L80.4747 56.4058L80.5691 56.5547C80.7208 56.8357 80.9231 57.1759 81.176 57.5771L81.4862 58.0714L81.8032 58.5724L81.9111 58.7214C82.0223 58.867 82.1421 59.0379 82.2685 59.236L82.6057 59.7573L83.0171 60.4073C83.098 60.5393 83.1671 60.6832 83.2261 60.8407C83.2935 61.0218 83.302 61.1657 83.2531 61.274C83.2345 61.3231 83.2328 61.3755 83.2463 61.4297C83.2632 61.4974 83.2615 61.5719 83.2396 61.6532L83.2059 61.7615L83.1654 61.863C83.1519 61.9037 83.1199 61.9324 83.071 61.9511C82.953 62.0002 82.8788 62.0205 82.8485 62.012C82.8114 62.0018 82.7574 61.946 82.6866 61.8427L82.5652 61.6667C82.5113 61.5617 82.4388 61.4771 82.3494 61.4094C82.2449 61.3282 82.1539 61.2215 82.0729 61.0912L81.7627 60.624L81.6683 60.5021C81.5419 60.3667 81.3952 60.1873 81.23 59.9604L81.0276 59.6828L80.8186 59.412C80.5084 59.0193 80.269 58.6909 80.1038 58.4235L79.8138 57.9834L79.5171 57.5433C79.3501 57.3046 79.2068 57.049 79.0855 56.7781L78.991 56.5886L78.8831 56.399Z" fill="#BD5210"/>
<path d="M87.6422 53.7516C87.5832 53.9378 87.5343 54.1494 87.4939 54.388L87.4197 55.0177L87.3725 55.4984C87.3489 55.6796 87.3219 55.837 87.2916 55.9724L87.2713 56.1214C87.2612 56.1941 87.2949 56.2297 87.3725 56.2297C87.4298 56.2297 87.4871 56.2229 87.5411 56.2094L88.1615 56.074C88.2964 56.0435 88.3453 55.9572 88.3099 55.8167L88.2492 55.6L88.0738 55.0651L87.7906 54.1443L87.7232 53.9479L87.6422 53.7516ZM84.5671 61.0099L84.5738 60.7932C84.5688 60.7035 84.5738 60.6036 84.5873 60.4953C84.6042 60.3785 84.6143 60.2634 84.6143 60.15C84.6008 59.8352 84.6345 59.3747 84.7155 58.7688L84.7964 58.0781L84.9582 56.5073L84.9919 56.25L85.0324 55.9927L85.1133 55.1802L85.201 54.3677L85.3089 53.4875L85.3629 53.0745L85.4235 52.6615C85.4674 52.3365 85.4927 52.0639 85.4977 51.8422L85.518 51.6865L85.5449 51.524L85.6393 50.6911C85.6528 50.5659 85.7068 50.4863 85.8012 50.4542C85.926 50.4102 86.0339 50.3154 86.1249 50.1698L86.2058 50.075C86.2497 50.0259 86.2935 50.0191 86.334 50.0547C86.3778 50.0869 86.4452 50.119 86.5363 50.1495L86.6374 50.1901L86.7318 50.2443C86.8128 50.3035 86.9139 50.3357 87.0353 50.3391C87.327 50.3441 87.5428 50.5066 87.6827 50.8266C87.8614 51.2379 88.0603 51.8337 88.2761 52.6141L88.411 53.0609L88.5257 53.5146L88.6605 53.8938L88.7819 54.2729L88.9101 54.6656C89.0129 54.9872 89.0888 55.2479 89.1393 55.451C89.1832 55.6135 89.2506 55.7811 89.3417 55.9521L89.4293 56.1823L89.5103 56.4193L89.8407 57.2453L89.8812 57.3266L89.9014 57.401C89.9098 57.5365 89.9435 57.6837 90.0025 57.8411L90.0835 58.0375L90.1779 58.2474C90.2588 58.415 90.3414 58.613 90.4274 58.8432L90.6432 59.4458C90.714 59.6354 90.8 59.8419 90.8995 60.062C90.9534 60.194 90.9905 60.3362 91.0141 60.4885C91.0225 60.5478 91.0225 60.6138 91.0141 60.6849C90.9905 60.8525 90.8944 60.949 90.7241 60.976C90.6516 60.9896 90.596 60.9676 90.5555 60.9083L90.3937 60.6917L90.2386 60.475C90.1071 60.304 90.0127 60.1483 89.9553 60.0078L89.6923 59.4797L89.4428 58.9516C89.2574 58.5453 89.109 58.1831 88.9977 57.8615L88.8224 57.374L88.6538 56.8797L88.6336 56.812L88.6066 56.7443C88.5746 56.663 88.5122 56.6292 88.4178 56.6427C88.057 56.6935 87.7704 56.7036 87.5546 56.6766C87.4062 56.6546 87.3067 56.663 87.2578 56.7036C87.2073 56.7443 87.1735 56.8391 87.1567 56.988L86.7453 59.5745L86.6779 59.8927L86.5295 60.5427C86.4486 60.9405 86.3306 61.2536 86.1788 61.4839C86.1384 61.5414 86.1064 61.6277 86.0844 61.7411C86.0575 61.88 85.9664 62.0086 85.8147 62.1271C85.6613 62.2354 85.5112 62.2845 85.3629 62.276L85.0459 62.2625C84.965 62.2659 84.8857 62.2439 84.8099 62.1948L84.7155 62.1271L84.6278 62.0391C84.5367 61.9527 84.4963 61.8309 84.5064 61.6734L84.5671 61.0099ZM86.0912 48.4094C86.2699 47.9354 86.4924 47.4276 86.7588 46.8859C86.8886 46.6151 87.0505 46.4171 87.2444 46.2901L87.2781 46.263L87.3118 46.2427C87.3388 46.2342 87.3624 46.2427 87.386 46.2698C87.5917 46.5051 87.6625 46.7031 87.595 46.8656C87.5411 46.9926 87.509 47.1195 87.5006 47.2448C87.4736 47.4259 87.4062 47.6544 87.2983 47.9286L87.1702 48.2469C87.1247 48.3688 87.0909 48.4805 87.069 48.5786L86.9476 48.9714C86.8886 49.1169 86.8212 49.2354 86.7453 49.3302C86.6593 49.4385 86.5565 49.4487 86.4351 49.3573C86.3272 49.2896 86.2328 49.1406 86.1519 48.9104C86.0709 48.6853 86.0507 48.5177 86.0912 48.4094Z" fill="#BD5210"/>
<mask id="mask0_19_79" style="mask-type:luminance" maskUnits="userSpaceOnUse" x="0" y="0" width="53" height="65">
<path d="M0 0H52.4393V65H0V0Z" fill="white"/>
</mask>
<g mask="url(#mask0_19_79)">
<path d="M47.3021 24.871L51.5995 26.8277L52.4088 28.1328L49.8512 28.7388L47.5634 29.8391L45.4745 31.8821L44.1814 34.3417L43.2356 36.642L41.2462 38.9932L40.5499 40.6944L39.4557 42.6952L38.1626 43.5449L37.5658 43.1454H36.421L35.2763 45.2461V47.8478L33.3375 52.4993V55.1501L33.5853 56.2504L33.8837 57.5521L34.7486 59.3514L34.2327 60.7631L33.3375 62.6539L31.461 63.1346L30.6029 64.0504L28.546 65.0152L25.2416 62.2189L22.915 60.5414L20.3693 58.7099L18.5147 58.4052L14.6725 58.7099L12.4471 58.4052H8.55255L9.00775 57.0832L9.86758 54.6423L11.2332 53.0156L11.5367 51.5396L10.8286 50.2717L9.00775 49.5997L7.69272 48.034L7.43983 45.9469L6.17538 40.2001L5.6696 36.6911V33.844L4.30568 31.3016L3.39528 26.8277L2.73776 22.425L3.39528 20.6223L4.30568 18.3337L3.69875 16.2297L2.33314 13.4147L1.01811 9.84139L0.0571289 6.33241L0.562909 4.48905L3.11541 1.0647L12.2768 0.00506592L18.4389 0.575509L24.6819 4.48905L33.356 10.6048L40.0053 16.2297L42.4381 19.8165L45.842 22.425L47.3021 24.871Z" fill="#128110"/>
</g>
</svg>
